<?xml version="1.0" encoding="UTF-8"?>
<svg xmlns="http://www.w3.org/2000/svg" style="display: none;">
    <!-- Age verification -->
    <symbol id="icon-18plus" viewBox="0 0 24 24">
        <path d="M12 2C6.48 2 2 6.48 2 12s4.48 10 10 10 10-4.48 10-10S17.52 2 12 2zm1 15h-2v-2h2v2zm0-4h-2V7h2v6z"/>
    </symbol>

    <!-- Download section -->
    <symbol id="icon-download" viewBox="0 0 24 24">
        <path d="M19 9h-4V3H9v6H5l7 7 7-7zM5 18v2h14v-2H5z"/>
    </symbol>

    <symbol id="icon-shield" viewBox="0 0 24 24">
        <path d="M12 1L3 5v6c0 5.55 3.84 10.74 9 12 5.16-1.26 9-6.45 9-12V5l-9-4zm0 10.99h7c-.53 4.12-3.28 7.79-7 8.94V12H5V6.3l7-3.11v8.8z"/>
    </symbol>
    <symbol id="icon-cricket" viewBox="0 0 24 24">
        <path d="M17.5 3.3c-.7 0-1.3.6-1.3 1.3 0 .3.1.6.3.8l-8.5 8.5-2.7-.3c-.4 0-.7.3-.7.7 0 .2.1.3.2.4l3.8 3.8c.1.1.3.2.4.2.4 0 .7-.3.7-.7l-.3-2.7 8.5-8.5c.2.2.5.3.8.3.7 0 1.3-.6 1.3-1.3 0-.3-.1-.6-.3-.8l-1.4-1.4c-.2-.2-.5-.3-.8-.3zM4 21h16v2H4z"/>
    </symbol>

    <symbol id="icon-football" viewBox="0 0 24 24">
        <path d="M12 2C6.48 2 2 6.48 2 12s4.48 10 10 10 10-4.48 10-10S17.52 2 12 2zm0 18c-4.41 0-8-3.59-8-8s3.59-8 8-8 8 3.59 8 8-3.59 8-8 8zm3.23-12.76l1.84 1.84c-.75 1.76-2.32 3.01-4.17 3.36l-1.83-1.83 4.16-3.37zM8.77 16.77l-1.84-1.84c.75-1.76 2.32-3.01 4.17-3.36l1.83 1.83-4.16 3.37zM7.53 9.8l1.32-1.32 6.37 6.37-1.32 1.32L7.53 9.8z"/>
    </symbol>

    <symbol id="icon-basketball" viewBox="0 0 24 24">
        <path d="M12 2C6.48 2 2 6.48 2 12s4.48 10 10 10 10-4.48 10-10S17.52 2 12 2zm0 2c.55 0 1.44.45 2 1l-4 4c-.55-.55-1-1.44-1-2 0-1.66 1.34-3 3-3zm-6 8c0-.56.45-1.44 1-2l4 4c-.55.55-1.44 1-2 1-1.66 0-3-1.34-3-3zm6 6c-.55 0-1.44-.45-2-1l4-4c.55.55 1 1.44 1 2 0 1.66-1.34 3-3 3zm6-8c0 .56-.45 1.44-1 2l-4-4c.55-.55 1.44-1 2-1 1.66 0 3 1.34 3 3z"/>
    </symbol>

    <symbol id="icon-kabaddi" viewBox="0 0 24 24">
        <path d="M13.49 5.48c1.1 0 2-.9 2-2s-.9-2-2-2-2 .9-2 2 .9 2 2 2zm-3.6 13.9l1-4.4 2.1 2v6h2v-7.5l-2.1-2 .6-3c1.3 1.5 3.3 2.5 5.5 2.5v-2c-1.9 0-3.5-1-4.3-2.4l-1-1.6c-.4-.6-1-1-1.7-1-.3 0-.5.1-.8.1l-5.2 2.2v4.7h2v-3.4l1.8-.7-1.6 8.1-4.9-1-.4 2 7 1.4z"/>
    </symbol>
    <symbol id="icon-money" viewBox="0 0 24 24">
        <path d="M11.8 10.9c-2.27-.59-3-1.2-3-2.15 0-1.09 1.01-1.85 2.7-1.85 1.78 0 2.44.85 2.5 2.1h2.21c-.07-1.72-1.12-3.3-3.21-3.81V3h-3v2.16c-1.94.42-3.5 1.68-3.5 3.61 0 2.31 1.91 3.46 4.7 4.13 2.5.6 3 1.48 3 2.41 0 .69-.49 1.79-2.7 1.79-2.06 0-2.87-.92-2.98-2.1h-2.2c.12 2.19 1.76 3.42 3.68 3.83V21h3v-2.15c1.95-.37 3.5-1.5 3.5-3.55 0-2.84-2.43-3.81-4.7-4.4z"/>
    </symbol>
    <symbol id="icon-refresh" viewBox="0 0 24 24">
        <path d="M17.65 6.35C16.2 4.9 14.21 4 12 4c-4.42 0-7.99 3.58-7.99 8s3.57 8 7.99 8c3.73 0 6.84-2.55 7.73-6h-2.08c-.82 2.33-3.04 4-5.65 4-3.31 0-6-2.69-6-6s2.69-6 6-6c1.66 0 3.14.69 4.22 1.78L13 11h7V4l-2.35 2.35z"/>
    </symbol>
    <symbol id="icon-raid" viewBox="0 0 24 24">
        <path d="M19 8h-1V3H6v5H5c-1.1 0-2 .9-2 2v9h18v-9c0-1.1-.9-2-2-2zm-8 6H9v2H7v-2H5v-2h2v-2h2v2h2v2zm8-2h-2v2h2v-2zm-2-2h2v2h-2v-2zM8 5h8v3H8V5z"/>
    </symbol>
    <symbol id="icon-target" viewBox="0 0 24 24">
        <path d="M12 2C6.48 2 2 6.48 2 12s4.48 10 10 10 10-4.48 10-10S17.52 2 12 2zm0 18c-4.42 0-8-3.58-8-8s3.58-8 8-8 8 3.58 8 8-3.58 8-8 8zm0-14c-3.31 0-6 2.69-6 6s2.69 6 6 6 6-2.69 6-6-2.69-6-6-6zm0 10c-2.21 0-4-1.79-4-4s1.79-4 4-4 4 1.79 4 4-1.79 4-4 4zm0-6c-1.1 0-2 .9-2 2s.9 2 2 2 2-.9 2-2-.9-2-2-2z"/>
    </symbol>
    <symbol id="icon-goalkeeper" viewBox="0 0 24 24">
        <path d="M19 17.3c0 1.5-1.2 2.7-2.7 2.7H7.7C6.2 20 5 18.8 5 17.3V8c0-1.7 1.3-3 3-3h.5c.4-1.2 1.5-2 2.8-2h1.4c1.3 0 2.4.8 2.8 2h.5c1.7 0 3 1.3 3 3v9.3zM12.5 5h-1c-.3 0-.5.2-.5.5s.2.5.5.5h1c.3 0 .5-.2.5-.5s-.2-.5-.5-.5zm4.5 3c0-.6-.4-1-1-1H8c-.6 0-1 .4-1 1v9.3c0 .4.3.7.7.7h8.6c.4 0 .7-.3.7-.7V8z"/>
    </symbol>
    <symbol id="icon-midfield" viewBox="0 0 24 24">
        <path d="M12 2C6.48 2 2 6.48 2 12s4.48 10 10 10 10-4.48 10-10S17.52 2 12 2zm0 18c-4.41 0-8-3.59-8-8s3.59-8 8-8 8 3.59 8 8-3.59 8-8 8zm-2-13v8l6-4z"/>
    </symbol>
    <symbol id="icon-strategy" viewBox="0 0 24 24">
        <path d="M20 12c0-1.1-.9-2-2-2V7c0-1.1-.9-2-2-2H8c-1.1 0-2 .9-2 2v3c-1.1 0-2 .9-2 2v5h1.33L6 19h1l.67-2h8.67l.66 2h1l.67-2H20v-5zm-4-2h-3V7h3v3zM8 7h3v3H8V7zm-2 5h12v3H6v-3z"/>
    </symbol>

    <symbol id="icon-aviator" viewBox="0 0 24 24">
        <path d="M21 16v-2l-8-5V3.5c0-.83-.67-1.5-1.5-1.5S10 2.67 10 3.5V9l-8 5v2l8-2.5V19l-2 1.5V22l3.5-1 3.5 1v-1.5L13 19v-5.5l8 2.5z"/>
    </symbol>

    <symbol id="icon-bolt" viewBox="0 0 24 24">
        <path d="M11 21h-1l1-7H7.5c-.58 0-.57-.32-.38-.66.19-.34.05-.08.07-.12C8.48 10.94 10.42 7.54 13 3h1l-1 7h3.5c.49 0 .56.33.47.51l-.07.15C12.96 17.55 11 21 11 21z"/>
    </symbol>

    <symbol id="icon-clock" viewBox="0 0 24 24">
        <path d="M11.99 2C6.47 2 2 6.48 2 12s4.47 10 9.99 10C17.52 22 22 17.52 22 12S17.52 2 11.99 2zM12 20c-4.42 0-8-3.58-8-8s3.58-8 8-8 8 3.58 8 8-3.58 8-8 8zm.5-13H11v6l5.25 3.15.75-1.23-4.5-2.67V7z"/>
    </symbol>
    <symbol id="icon-clipboard" viewBox="0 0 24 24">
        <path d="M19 3h-4.18C14.4 1.84 13.3 1 12 1c-1.3 0-2.4.84-2.82 2H5c-1.1 0-2 .9-2 2v14c0 1.1.9 2 2 2h14c1.1 0 2-.9 2-2V5c0-1.1-.9-2-2-2zm-7 0c.55 0 1 .45 1 1s-.45 1-1 1-1-.45-1-1 .45-1 1-1zm7 16H5V5h2v3h10V5h2v14z"/>
    </symbol>
    <symbol id="icon-phone" viewBox="0 0 24 24">
        <path d="M6.62 10.79c1.44 2.83 3.76 5.14 6.59 6.59l2.2-2.2c.27-.27.67-.36 1.02-.24 1.12.37 2.33.57 3.57.57.55 0 1 .45 1 1V20c0 .55-.45 1-1 1-9.39 0-17-7.61-17-17 0-.55.45-1 1-1h3.5c.55 0 1 .45 1 1 0 1.25.2 2.45.57 3.57.11.35.03.74-.25 1.02l-2.2 2.2z"/>
    </symbol>
    <symbol id="icon-daily" viewBox="0 0 24 24">
        <path d="M19 3h-1V1h-2v2H8V1H6v2H5c-1.11 0-1.99.9-1.99 2L3 19c0 1.1.89 2 2 2h14c1.1 0 2-.9 2-2V5c0-1.1-.9-2-2-2zm0 16H5V8h14v11zM7 10h10v2H7zm0 4h7v2H7z"/>
    </symbol>
    <symbol id="icon-playoff" viewBox="0 0 24 24">
        <path d="M12 1L8.4 8.2 1 9.3l5.5 5.4-1.3 7.3 6.8-3.6 6.8 3.6-1.3-7.3 5.5-5.4-7.4-1.1z"/>
    </symbol>
    <symbol id="icon-mail" viewBox="0 0 24 24">
        <path d="M20 4H4c-1.1 0-1.99.9-1.99 2L2 18c0 1.1.9 2 2 2h16c1.1 0 2-.9 2-2V6c0-1.1-.9-2-2-2zm0 4l-8 5-8-5V6l8 5 8-5v2z"/>
    </symbol>

    <!-- Game features -->
    <symbol id="icon-brain" viewBox="0 0 24 24">
        <path d="M12 2C6.48 2 2 6.48 2 12s4.48 10 10 10 10-4.48 10-10S17.52 2 12 2zm0 18c-4.41 0-8-3.59-8-8s3.59-8 8-8 8 3.59 8 8-3.59 8-8 8zm-5-9h10v2H7z"/>
    </symbol>
    <symbol id="icon-calendar" viewBox="0 0 24 24">
        <path d="M19 3h-1V1h-2v2H8V1H6v2H5c-1.11 0-1.99.9-1.99 2L3 19c0 1.1.89 2 2 2h14c1.1 0 2-.9 2-2V5c0-1.1-.9-2-2-2zm0 16H5V8h14v11zM7 10h5v5H7z"/>
    </symbol>
    <symbol id="icon-coins" viewBox="0 0 24 24">
        <path d="M12 2C6.48 2 2 6.48 2 12s4.48 10 10 10 10-4.48 10-10S17.52 2 12 2zm1.41 16.09V20h-2.67v-1.93c-1.71-.36-3.16-1.46-3.27-3.4h1.96c.1 1.05.82 1.87 2.65 1.87 1.96 0 2.4-.98 2.4-1.59 0-.83-.44-1.61-2.67-2.14-2.48-.6-4.18-1.62-4.18-3.67 0-1.72 1.39-2.84 3.11-3.21V4h2.67v1.95c1.86.45 2.79 1.86 2.85 3.39H14.3c-.05-1.11-.64-1.87-2.22-1.87-1.5 0-2.4.68-2.4 1.64 0 .84.65 1.39 2.67 1.91s4.18 1.39 4.18 3.91c-.01 1.83-1.38 2.83-3.12 3.16z"/>
    </symbol>

    <symbol id="icon-chart" viewBox="0 0 24 24">
        <path d="M3.5 18.49l6-6.01 4 4L22 6.92l-1.41-1.41-7.09 7.97-4-4L2 16.99z"/>
    </symbol>

    <symbol id="icon-trophy" viewBox="0 0 24 24">
        <path d="M19 5h-2V3H7v2H5c-1.1 0-2 .9-2 2v1c0 2.55 1.92 4.63 4.39 4.94.63 1.5 1.98 2.63 3.61 2.96V19H7v2h10v-2h-4v-3.1c1.63-.33 2.98-1.46 3.61-2.96C19.08 12.63 21 10.55 21 8V7c0-1.1-.9-2-2-2z"/>
    </symbol>

    <!-- Game modes -->
    <symbol id="icon-user" viewBox="0 0 24 24">
        <path d="M12 12c2.21 0 4-1.79 4-4s-1.79-4-4-4-4 1.79-4 4 1.79 4 4 4zm0 2c-2.67 0-8 1.34-8 4v2h16v-2c0-2.66-5.33-4-8-4z"/>
    </symbol>

    <symbol id="icon-users" viewBox="0 0 24 24">
        <path d="M16 11c1.66 0 2.99-1.34 2.99-3S17.66 5 16 5c-1.66 0-3 1.34-3 3s1.34 3 3 3zm-8 0c1.66 0 2.99-1.34 2.99-3S9.66 5 8 5C6.34 5 5 6.34 5 8s1.34 3 3 3zm0 2c-2.33 0-7 1.17-7 3.5V19h14v-2.5c0-2.33-4.67-3.5-7-3.5zm8 0c-.29 0-.62.02-.97.05 1.16.84 1.97 1.97 1.97 3.45V19h6v-2.5c0-2.33-4.67-3.5-7-3.5z"/>
    </symbol>

    <symbol id="icon-crown" viewBox="0 0 24 24">
        <path d="M12 2l3.09 6.26L22 9.27l-5 4.87 1.18 6.88L12 17.77l-6.18 3.25L7 14.14 2 9.27l6.91-1.01L12 2z"/>
    </symbol>

    <!-- Strategy tips -->
    <symbol id="icon-lightbulb" viewBox="0 0 24 24">
        <path d="M9 21c0 .55.45 1 1 1h4c.55 0 1-.45 1-1v-1H9v1zm3-19C8.14 2 5 5.14 5 9c0 2.38 1.19 4.47 3 5.74V17c0 .55.45 1 1 1h6c.55 0 1-.45 1-1v-2.26c1.81-1.27 3-3.36 3-5.74 0-3.86-3.14-7-7-7z"/>
    </symbol>

    <symbol id="icon-eye" viewBox="0 0 24 24">
        <path d="M12 4.5C7 4.5 2.73 7.61 1 12c1.73 4.39 6 7.5 11 7.5s9.27-3.11 11-7.5c-1.73-4.39-6-7.5-11-7.5zM12 17c-2.76 0-5-2.24-5-5s2.24-5 5-5 5 2.24 5 5-2.24 5-5 5zm0-8c-1.66 0-3 1.34-3 3s1.34 3 3 3 3-1.34 3-3-1.34-3-3-3z"/>
    </symbol>

    <!-- Contact -->
    <symbol id="icon-envelope" viewBox="0 0 24 24">
        <path d="M20 4H4c-1.1 0-1.99.9-1.99 2L2 18c0 1.1.9 2 2 2h16c1.1 0 2-.9 2-2V6c0-1.1-.9-2-2-2zm0 4l-8 5-8-5V6l8 5 8-5v2z"/>
    </symbol>

    <!-- Additional icons -->
    <symbol id="icon-gamepad" viewBox="0 0 24 24">
        <path d="M15 7.5V2H9v5.5l3 3 3-3zM7.5 9H2v6h5.5l3-3-3-3zM9 16.5V22h6v-5.5l-3-3-3 3zM16.5 9l-3 3 3 3H22V9h-5.5z"/>
    </symbol>

    <symbol id="icon-medal" viewBox="0 0 24 24">
        <path d="M12 1L3 5v6c0 5.55 3.84 10.74 9 12 5.16-1.26 9-6.45 9-12V5l-9-4zm0 10.99h7c-.53 4.12-3.28 7.79-7 8.94V12H5V6.3l7-3.11v8.8z"/>
    </symbol>

    <!-- Game specific -->
    <symbol id="icon-dice" viewBox="0 0 24 24">
        <path d="M19 3H5c-1.1 0-2 .9-2 2v14c0 1.1.9 2 2 2h14c1.1 0 2-.9 2-2V5c0-1.1-.9-2-2-2zm-4 6h-3v3h3v3h-3v3h-2v-3H7v-3h3V9H7V7h3V4h2v3h3v2z"/>
    </symbol>

    <symbol id="icon-laser" viewBox="0 0 24 24">
        <path d="M12 2L4.5 20.29l.71.71L12 18l6.79 3 .71-.71z"/>
    </symbol>

    <symbol id="icon-gem" viewBox="0 0 24 24">
        <path d="M12 2L2 8l10 6 10-6-10-6zM2 15l10 6 10-6-10-6-10 6z"/>
    </symbol>

    <symbol id="icon-quote" viewBox="0 0 24 24">
        <path d="M6 17h3l2-4V7H5v6h3l-2 4zm8 0h3l2-4V7h-6v6h3l-2 4z"/>
    </symbol>

    <!-- Cricket Icons -->
    <symbol id="icon-bat" viewBox="0 0 24 24">
        <path d="M19 3L13 9L15 11L21 5L19 3M12 12C12 12 10.5 13.5 9.5 14.5C8.5 15.5 8 17 8 17L7 18C6.27 18.72 5.5 19 5.5 19C5.5 19 4 18.5 3.5 18C3 17.5 5 16 5 16C5 16 6.5 15.5 7 15L8 14C8 14 9.5 13.5 10.5 12.5C11.5 11.5 13 10 13 10L12 12Z"/>
    </symbol>

    <symbol id="icon-ball" viewBox="0 0 24 24">
        <path d="M12 2C6.48 2 2 6.48 2 12C2 17.52 6.48 22 12 22C17.52 22 22 17.52 22 12C22 6.48 17.52 2 12 2M12 20C7.58 20 4 16.42 4 12C4 7.58 7.58 4 12 4C16.42 4 20 7.58 20 12C20 16.42 16.42 20 12 20M15 12C15 13.66 13.66 15 12 15C10.34 15 9 13.66 9 12C9 10.34 10.34 9 12 9C13.66 9 15 10.34 15 12Z"/>
    </symbol>

    <symbol id="icon-all" viewBox="0 0 24 24">
        <path d="M12 2L1 21H23M12 6L19.53 19H4.47M12 10L16.03 17H7.97"/>
    </symbol>

    <!-- Football Icons -->
    <symbol id="icon-striker" viewBox="0 0 24 24">
        <path d="M12 2C6.48 2 2 6.48 2 12C2 17.52 6.48 22 12 22C17.52 22 22 17.52 22 12C22 6.48 17.52 2 12 2M12 5C13.66 5 15 6.34 15 8C15 9.66 13.66 11 12 11C10.34 11 9 9.66 9 8C9 6.34 10.34 5 12 5M12 19.2C9.5 19.2 7.29 17.92 6 15.98C6.03 13.99 10 12.9 12 12.9C13.99 12.9 17.97 13.99 18 15.98C16.71 17.92 14.5 19.2 12 19.2Z"/>
    </symbol>

    <symbol id="icon-midfielder" viewBox="0 0 24 24">
        <path d="M12 2C6.48 2 2 6.48 2 12C2 17.52 6.48 22 12 22C17.52 22 22 17.52 22 12C22 6.48 17.52 2 12 2M12 5C13.66 5 15 6.34 15 8C15 9.66 13.66 11 12 11C10.34 11 9 9.66 9 8C9 6.34 10.34 5 12 5M12 19.2C9.5 19.2 7.29 17.92 6 15.98C6.03 13.99 10 12.9 12 12.9C13.99 12.9 17.97 13.99 18 15.98C16.71 17.92 14.5 19.2 12 19.2Z"/>
    </symbol>

    <symbol id="icon-defender" viewBox="0 0 24 24">
        <path d="M12 1L3 5V11C3 16.55 6.84 21.74 12 23C17.16 21.74 21 16.55 21 11V5L12 1M12 3.18L19 6.3V11.22C19 12.92 18.5 14.65 17.65 16.17C16.88 17.5 15.81 18.68 14.43 19.63C13.39 20.32 12.49 20.86 12 21.21C11.51 20.86 10.61 20.32 9.57 19.63C8.19 18.68 7.12 17.5 6.35 16.17C5.5 14.65 5 12.92 5 11.22V6.3L12 3.18M12 6C10.34 6 9 7.34 9 9C9 10.66 10.34 12 12 12C13.66 12 15 10.66 15 9C15 7.34 13.66 6 12 6M12 20.2C14.5 20.2 16.71 18.92 18 16.98C17.97 14.99 14 13.9 12 13.9C10.01 13.9 6.03 14.99 6 16.98C7.29 18.92 9.5 20.2 12 20.2Z"/>
    </symbol>

    <!-- Basketball Icons -->
    <symbol id="icon-shooter" viewBox="0 0 24 24">
        <path d="M12 2C6.48 2 2 6.48 2 12C2 17.52 6.48 22 12 22C17.52 22 22 17.52 22 12C22 6.48 17.52 2 12 2M12 5C13.66 5 15 6.34 15 8C15 9.66 13.66 11 12 11C10.34 11 9 9.66 9 8C9 6.34 10.34 5 12 5M12 19.2C9.5 19.2 7.29 17.92 6 15.98C6.03 13.99 10 12.9 12 12.9C13.99 12.9 17.97 13.99 18 15.98C16.71 17.92 14.5 19.2 12 19.2Z"/>
    </symbol>

    <symbol id="icon-playmaker" viewBox="0 0 24 24">
        <path d="M12 2C6.48 2 2 6.48 2 12C2 17.52 6.48 22 12 22C17.52 22 22 17.52 22 12C22 6.48 17.52 2 12 2M12 5C13.66 5 15 6.34 15 8C15 9.66 13.66 11 12 11C10.34 11 9 9.66 9 8C9 6.34 10.34 5 12 5M12 19.2C9.5 19.2 7.29 17.92 6 15.98C6.03 13.99 10 12.9 12 12.9C13.99 12.9 17.97 13.99 18 15.98C16.71 17.92 14.5 19.2 12 19.2Z"/>
    </symbol>

    <symbol id="icon-center" viewBox="0 0 24 24">
        <path d="M12 2C6.48 2 2 6.48 2 12C2 17.52 6.48 22 12 22C17.52 22 22 17.52 22 12C22 6.48 17.52 2 12 2M12 5C13.66 5 15 6.34 15 8C15 9.66 13.66 11 12 11C10.34 11 9 9.66 9 8C9 6.34 10.34 5 12 5M12 19.2C9.5 19.2 7.29 17.92 6 15.98C6.03 13.99 10 12.9 12 12.9C13.99 12.9 17.97 13.99 18 15.98C16.71 17.92 14.5 19.2 12 19.2Z"/>
    </symbol>

    <!-- Kabaddi Icons -->
    <symbol id="icon-raider" viewBox="0 0 24 24">
        <path d="M12 2C6.48 2 2 6.48 2 12C2 17.52 6.48 22 12 22C17.52 22 22 17.52 22 12C22 6.48 17.52 2 12 2M12 5C13.66 5 15 6.34 15 8C15 9.66 13.66 11 12 11C10.34 11 9 9.66 9 8C9 6.34 10.34 5 12 5M12 19.2C9.5 19.2 7.29 17.92 6 15.98C6.03 13.99 10 12.9 12 12.9C13.99 12.9 17.97 13.99 18 15.98C16.71 17.92 14.5 19.2 12 19.2Z"/>
    </symbol>

    <symbol id="icon-all-rounder" viewBox="0 0 24 24">
        <path d="M12 2C6.48 2 2 6.48 2 12C2 17.52 6.48 22 12 22C17.52 22 22 17.52 22 12C22 6.48 17.52 2 12 2M12 5C13.66 5 15 6.34 15 8C15 9.66 13.66 11 12 11C10.34 11 9 9.66 9 8C9 6.34 10.34 5 12 5M12 19.2C9.5 19.2 7.29 17.92 6 15.98C6.03 13.99 10 12.9 12 12.9C13.99 12.9 17.97 13.99 18 15.98C16.71 17.92 14.5 19.2 12 19.2Z"/>
    </symbol>
</svg> 